/* XPM */
static char *vlaunch_xpm[] = {
"32 32 256 3",
"000 c black",
"001 c #020304",
"002 c #020406",
"003 c #030508",
"004 c #040609",
"005 c #05080C",
"006 c #050615",
"007 c #04061A",
"008 c #04061E",
"009 c #060B12",
"010 c #090916",
"011 c #090D14",
"012 c #090A1C",
"013 c #090F18",
"014 c #0A121B",
"015 c #0A121D",
"016 c #0C1119",
"017 c #0D141E",
"018 c #080A2B",
"019 c #0A0D2A",
"020 c #070B33",
"021 c #06093D",
"022 c #090C3E",
"023 c #0D1623",
"024 c #0E1826",
"025 c #0E1132",
"026 c #101A28",
"027 c #131C29",
"028 c #111D2D",
"029 c #17182A",
"030 c #101436",
"031 c #121E31",
"032 c #161B3E",
"033 c #161C3F",
"034 c #181B3F",
"035 c #15202F",
"036 c #142135",
"037 c #152439",
"038 c #182335",
"039 c #18293F",
"040 c #212234",
"041 c #21233D",
"042 c #212539",
"043 c #22243E",
"044 c #252638",
"045 c #080C4E",
"046 c #090E50",
"047 c #0A0F5E",
"048 c #0D1040",
"049 c #0D144E",
"050 c #0F1455",
"051 c #101343",
"052 c #141C4C",
"053 c #111553",
"054 c #111854",
"055 c #1C1E52",
"056 c #1A1E58",
"057 c #0D1360",
"058 c #0C136A",
"059 c #0E1479",
"060 c #131862",
"061 c #121678",
"062 c #131A73",
"063 c #171D79",
"064 c #1A1F77",
"065 c #1E214B",
"066 c #182940",
"067 c #1A2C43",
"068 c #1F2F46",
"069 c #1A2D4A",
"070 c #1D284F",
"071 c #1E2C4C",
"072 c #172255",
"073 c #1B2557",
"074 c #1F2D56",
"075 c #1F3043",
"076 c #1F3047",
"077 c #1C304B",
"078 c #1F365A",
"079 c #1D2060",
"080 c #1A236B",
"081 c #1D2B6C",
"082 c #18227C",
"083 c #210F7E",
"084 c #212343",
"085 c #222547",
"086 c #242640",
"087 c #222548",
"088 c #22254F",
"089 c #262842",
"090 c #22284B",
"091 c #26294B",
"092 c #26294C",
"093 c #202252",
"094 c #222550",
"095 c #232659",
"096 c #24275A",
"097 c #262953",
"098 c #27295D",
"099 c #242D5F",
"100 c #203046",
"101 c #22334E",
"102 c #223449",
"103 c #213753",
"104 c #213654",
"105 c #223856",
"106 c #273C57",
"107 c #203858",
"108 c #283D5B",
"109 c #2A3C5F",
"110 c #232661",
"111 c #242863",
"112 c #252964",
"113 c #25296C",
"114 c #282B67",
"115 c #282C68",
"116 c #202679",
"117 c #252A76",
"118 c #262C7E",
"119 c #282C70",
"120 c #282D79",
"121 c #233C61",
"122 c #283869",
"123 c #2C3E6B",
"124 c #25317E",
"125 c #254165",
"126 c #26416A",
"127 c #2B4167",
"128 c #2B416F",
"129 c #2A4469",
"130 c #2F4768",
"131 c #2E456D",
"132 c #2F4867",
"133 c #2F4673",
"134 c #2E437C",
"135 c #2A4973",
"136 c #2D4D7A",
"137 c #2F507C",
"138 c #314A6A",
"139 c #344D6D",
"140 c #304E74",
"141 c #324D7D",
"142 c #365274",
"143 c #375578",
"144 c #3E597F",
"145 c #111685",
"146 c #131984",
"147 c #141A8B",
"148 c #1D1385",
"149 c #1B1F8F",
"150 c #141991",
"151 c #14199A",
"152 c #1C2485",
"153 c #1C248C",
"154 c #1E2393",
"155 c #1E25A7",
"156 c #1921AC",
"157 c #220F82",
"158 c #281C93",
"159 c #2117A2",
"160 c #201CA3",
"161 c #252C86",
"162 c #262B8C",
"163 c #282E84",
"164 c #252D93",
"165 c #242F9D",
"166 c #282E92",
"167 c #282E9A",
"168 c #233383",
"169 c #2A3082",
"170 c #2A3089",
"171 c #2B3F80",
"172 c #223091",
"173 c #26359D",
"174 c #293093",
"175 c #2A329D",
"176 c #283C9A",
"177 c #2227A1",
"178 c #232EA4",
"179 c #232BAB",
"180 c #2A25AE",
"181 c #292DAC",
"182 c #252CB1",
"183 c #262BBA",
"184 c #2A2EBB",
"185 c #2531A2",
"186 c #2A32A3",
"187 c #2B32AB",
"188 c #2D33B3",
"189 c #2E34BC",
"190 c #3425AE",
"191 c #362BA0",
"192 c #3223B6",
"193 c #3F3FAB",
"194 c #3035B7",
"195 c #3035BC",
"196 c #2F34C5",
"197 c #3136C2",
"198 c #3136C8",
"199 c #3338C5",
"200 c #3338CC",
"201 c #3236D1",
"202 c #3439D3",
"203 c #353ADA",
"204 c #383CDE",
"205 c #2F4E82",
"206 c #2D4391",
"207 c #2F459C",
"208 c #324982",
"209 c #324D93",
"210 c #325384",
"211 c #355489",
"212 c #355986",
"213 c #3C5D85",
"214 c #395A8B",
"215 c #365592",
"216 c #3A5796",
"217 c #395698",
"218 c #3E5F93",
"219 c #3C5C9D",
"220 c #2E43A3",
"221 c #364FA6",
"222 c #3048B4",
"223 c #3D4FBF",
"224 c #3651A2",
"225 c #3955A9",
"226 c #3D5CA3",
"227 c #3F5DAC",
"228 c #3B52B1",
"229 c #3D59B6",
"230 c #3D6294",
"231 c #384BC0",
"232 c #4039E0",
"233 c #4346A4",
"234 c #4554A3",
"235 c #435CA3",
"236 c #405DB2",
"237 c #416189",
"238 c #43628E",
"239 c #456594",
"240 c #416098",
"241 c #44659A",
"242 c #446997",
"243 c #45689C",
"244 c #496D9F",
"245 c #4466A3",
"246 c #4163AB",
"247 c #4468A7",
"248 c #4561B3",
"249 c #517BB1",
"250 c #4749C2",
"251 c black",
"252 c black",
"253 c black",
"254 c black",
"255 c black",
"102132138138138138138138075000000000000000000000000000000000000000000016142139139139139139138237",
"143010040040040040040029130002000000000000000000000000000000000000000100042044044044044044006144",
"213012043043043043043041071027000000000000000000000000000000000000017109086089089089089089007238",
"242007085085087087087087032108000000000000000000000000000000000000106090091091091092092084008239",
"249019034088094094094094065128004000000000000000000000000000000009133097097097097097097025030244",
"103074018095095096096096095073068000000000000000000000000000000101099098098098098098093020123212",
"017241020111111111112112112056141000000000000000000000000000009141112114114114114115048052243136",
"000140072051113113113113113113081026000000000000000000000000076079119119119119119113021134136027",
"000105208022117117117117117120080127000000000000000000000004134120120120120120120053054240135000",
"000013218049080118118118118118116209005000000000000000000101124169163169169169117045171210037000",
"000001140081050161161161163161163082026000000000000000003217170170170170170170060060245135002000",
"000000039219046162166166166166166152219000000000000000028161166174174174174166047168230028000000",
"000000005214080064167167167167167167176011000000000002217167175175175175175063062219140002000000",
"000000000105206057186185186186186186147131000000000031173186186186186186175058176210066000000000",
"000000000014219058164181186187187181185224002000000219187187187187187187153059246135004000000000",
"000000000001137168061187187187188187188165036000035185188187188188187187059172218069000000000000",
"000000000000067226058181188188188188188155216000219188188194194188194154146225136011000000000000",
"000000000000011211082154189189189189188184222038185189195195195195194145173215069000000000000000",
"000000000000000125207061189189189189197189156221195197195197197197177145236137009000000000000000",
"000000000000000026219061181196197197197197183179199199199199199197145185219107000000000000000000",
"000000000000000004214172149198198198198198198196198198200200200182150228136014000000000000000000",
"000000000000000000077225061198201200200200200200202200202200200150178247078000000000000000000000",
"000000000000000000014226152179201202202202202202202202202202184151229205015000000000000000000000",
"000000000000000000001129220147203202203203203203203203203203151179226121001000000000000000000000",
"000000000000000000000036227146201204203204203204204204204201151231210023000000000000000000000000",
"000000000000000000000005211165180232232232232232232232232160182246125000000000000000000000000000",
"000000000000000000000000104228148190190190190190190190190159223205028000000000000000000000000000",
"000000000000000000000000024226158083083083083083083083157192248121001000000000000000000000000000",
"000000000000000000000000001141193191191191191191191191191250210036000000000000000000000000000000",
"000000000000000000000000000036234233233233233233233233233235126002000000000000000000000000000000",
"000000000000000000000000000009099110110110110110110110110122031000000000000000000000000000000000",
"000000000000000000000000000000033055055055055055055055055070000000000000000000000000000000000000"
};
