/* XPM */
static char * vlaunch_xpm[] = {
"32 32 5 1",
" 	c None",
".	c #0000FF",
"+	c #000080",
"@	c #040404",
"#	c #6699CC",
"   .........+  ++..+@     +++@  ",
"  ..+@@+..........@@     ++@..@ ",
" ..+@@@   ...++..+@         +..@",
"..+@@@        ..+@@          +.+",
"..+@@        ...@@            ..",
"+.+@@       ...@@             ..",
"@@@@       .#.+@              ..",
"@@@       ..#.@@              ..",
"         +.#.+@              +..",
"        +.#.+@@              +..",
"        .##.@@               .#.",
"       +.#..@               +.#.",
"       .##.+@               .#..",
"      ..#.+@@               .#.+",
"      .##.@@                .#.@",
"      .#..@                .#.+@",
"     +.#..@                .#.@@",
"     ..#.+@               .#..@ ",
"     .##.@@               .#.+@ ",
"    +.#..@               .#.+@@ ",
"    +.#.+@              +.#.@@  ",
"    ..#.+@              ...@@   ",
"    ..#.@@             +..+@    ",
"    .##.@             ..#.@@    ",
"    .##.@             .#.@@     ",
"    +.#.@           +.#.@@      ",
"    +.#.@@          ...+@       ",
"     +..+@        +...@@@       ",
"      ..+@@      +...@@         ",
"      +...@@   +...@@@          ",
"       +..+@ +....@@            ",
"          ....@@@@@             "};
